<?xml version="1.0" encoding="utf-8"?>
<!-- Svg Vector Icons : http://www.onlinewebfonts.com/icon -->
<!DOCTYPE svg PUBLIC "-//W3C//DTD SVG 1.1//EN" "http://www.w3.org/Graphics/SVG/1.1/DTD/svg11.dtd">
<svg version="1.1" xmlns="http://www.w3.org/2000/svg" xmlns:xlink="http://www.w3.org/1999/xlink" x="0px" y="0px" viewBox="0 0 1000 1000" enable-background="new 0 0 1000 1000" xml:space="preserve">
<metadata> Svg Vector Icons : http://www.onlinewebfonts.com/icon </metadata>
<g><g><g><path d="M889.3,40c0-16.5-13.5-30-30-30H268.7c-16.5,0-30,13.4-30,30v145.4h-98c-16.5,0-30,13.4-30,30V960c0,16.5,13.4,30,30,30h482.7c0-0.3,0-0.7-0.1-1h108c16.5,0,30-13.4,30-30V813.6h98c16.5,0,30-13.4,30-30V240.4c0,0,0,0,0,0L889.3,40z M829.1,44.7c10.8,0,19.5,8.7,19.5,19.6c0,10.8-8.7,19.5-19.5,19.5c-10.8,0-19.5-8.7-19.5-19.5C809.6,53.4,818.3,44.7,829.1,44.7z M743,44.7c10.8,0,19.5,8.7,19.5,19.6c0,10.8-8.8,19.5-19.5,19.5c-10.8,0-19.6-8.7-19.6-19.5C723.5,53.4,732.2,44.7,743,44.7z M657.4,44.7c10.8,0,19.6,8.7,19.6,19.6c0,10.8-8.7,19.5-19.6,19.5c-10.8,0-19.5-8.7-19.5-19.5C637.9,53.4,646.7,44.7,657.4,44.7z M735.6,959c0,2.3-1.9,4.3-4.3,4.3h-481c0,0.3,0,0.7-0.1,1H140.7c-2.4,0-4.3-1.9-4.3-4.3V296.7h594.9c1.5,0,2.9-0.2,4.3-0.6v0.5l0,0.1v200.2c0,0,0,0,0.1,0L735.6,959L735.6,959z M509.9,239.6c0-10.8,8.7-19.6,19.5-19.6c10.8,0,19.6,8.8,19.6,19.6c0,10.8-8.7,19.6-19.6,19.6C518.6,259.2,509.9,250.4,509.9,239.6z M595.5,239.6c0-10.8,8.7-19.6,19.6-19.6c10.8,0,19.5,8.8,19.5,19.6c0,10.8-8.7,19.6-19.5,19.6C604.2,259.1,595.5,250.4,595.5,239.6z M681.6,239.6c0-10.8,8.7-19.6,19.5-19.6c10.8,0,19.5,8.8,19.5,19.6c0,10.8-8.7,19.6-19.5,19.6C690.3,259.2,681.6,250.4,681.6,239.6z M863.6,783.6c0,2.3-1.9,4.3-4.3,4.3h-98V415.8c0,0,0,0,0,0l0-200.5c0-16.5-13.5-30-30-30H264.4v-64.1h594.9c1.5,0,2.9-0.2,4.3-0.6v0.5l0,0.1v200.2c0,0,0,0,0.1,0L863.6,783.6L863.6,783.6z"/><polygon points="179,622.8 361.3,716.7 361.3,671.5 233.9,607.6 361.3,543.7 361.3,498.6 179,592.5 "/><polygon points="467.3,450.4 361.7,724.9 405.1,724.9 511.1,450.4 "/><polygon points="510.7,543.8 639.1,607.6 510.7,671.5 510.7,716.7 693,623.2 693,592.1 510.7,498.6 "/></g></g><g></g><g></g><g></g><g></g><g></g><g></g><g></g><g></g><g></g><g></g><g></g><g></g><g></g><g></g><g></g></g>
</svg>