<svg id="visual" viewBox="0 0 900 675" width="900" height="675" xmlns="http://www.w3.org/2000/svg" xmlns:xlink="http://www.w3.org/1999/xlink" version="1.1"><rect x="0" y="0" width="900" height="675" fill="#E5E5E5"></rect><path d="M611 675L601.2 652.5C591.3 630 571.7 585 561.3 540C551 495 550 450 574.2 405C598.3 360 647.7 315 681.2 270C714.7 225 732.3 180 706.3 135C680.3 90 610.7 45 575.8 22.5L541 0L900 0L900 22.5C900 45 900 90 900 135C900 180 900 225 900 270C900 315 900 360 900 405C900 450 900 495 900 540C900 585 900 630 900 652.5L900 675Z" fill="#14213d" stroke-linecap="round" stroke-linejoin="miter"></path></svg>