<svg id="visual" viewBox="0 0 700 765" width="700" height="765" xmlns="http://www.w3.org/2000/svg" xmlns:xlink="http://www.w3.org/1999/xlink" version="1.1"><rect x="0" y="0" width="700" height="765" fill="#E5E5E5"></rect><path d="M476 765L468.3 739.5C460.7 714 445.3 663 437.2 612C429 561 428 510 446.7 459C465.3 408 503.7 357 529.8 306C556 255 570 204 549.8 153C529.7 102 475.3 51 448.2 25.5L421 0L700 0L700 25.5C700 51 700 102 700 153C700 204 700 255 700 306C700 357 700 408 700 459C700 510 700 561 700 612C700 663 700 714 700 739.5L700 765Z" fill="#14213d" stroke-linecap="round" stroke-linejoin="miter"></path></svg>