<svg id="visual" viewBox="0 0 675 900" width="675" height="900" xmlns="http://www.w3.org/2000/svg" xmlns:xlink="http://www.w3.org/1999/xlink" version="1.1"><rect x="0" y="0" width="675" height="900" fill="#E5E5E5"></rect><path d="M459 900L451.7 870C444.3 840 429.7 780 421.8 720C414 660 413 600 431 540C449 480 486 420 511.2 360C536.3 300 549.7 240 530.2 180C510.7 120 458.3 60 432.2 30L406 0L675 0L675 30C675 60 675 120 675 180C675 240 675 300 675 360C675 420 675 480 675 540C675 600 675 660 675 720C675 780 675 840 675 870L675 900Z" fill="#14213d" stroke-linecap="round" stroke-linejoin="miter"></path></svg>